<?xml version="1.0" encoding="utf-8"?>
<!-- Generator: Adobe Illustrator 26.1.0, SVG Export Plug-In . SVG Version: 6.00 Build 0)  -->
<svg version="1.1" id="Layer_1" xmlns="http://www.w3.org/2000/svg" xmlns:xlink="http://www.w3.org/1999/xlink" x="0px" y="0px"
	 viewBox="0 0 940.18 768" style="enable-background:new 0 0 940.18 768;" xml:space="preserve">
<style type="text/css">
	.st0{opacity:0.5;}
	.st1{fill:#FFFFFF;}
	.st2{fill:#00BF7D;}
	.st3{fill:#002FA1;}
</style>
<g class="st0">
	<circle class="st1" cx="550.7" cy="92.76" r="26.62"/>
	<path class="st2" d="M379.01,582.4H237.25c-20.54-6.64-35.41-25.91-35.41-48.66c0-12.91,4.8-24.69,12.69-33.69h-12.69
		c-38.32,0-74.22-19-96.04-50.12c-3.75,10.22-5.94,21.19-6.21,32.65h-0.06v2.49v0v99.81h0.13c1.34,55.34,46.52,99.81,102.18,99.81
		h279.48v0C481.32,628.21,435.52,582.4,379.01,582.4z"/>
	<path class="st3" d="M359.05,500.06v9.98v22.46v34.93h19.96c14.96,0,29.26,2.84,42.42,7.97V532.5v-22.46v-9.98H359.05z"/>
	<path class="st2" d="M680.89,482.59c-0.43-17.7-5.36-34.28-13.68-48.66c-17.68-30.57-50.71-51.15-88.57-51.15h-35.41h-76.88h-22.46
		h-22.46H237.25c-20.54-6.64-35.41-25.91-35.41-48.66s14.87-42.02,35.41-48.66h21.98c56.5,0,102.31-45.81,102.31-102.31h-159.7
		c-55.67,0-100.92,44.47-102.25,99.81h-0.06v2.5v48.66v51.15h0.06c0.43,17.7,5.36,34.28,13.68,48.66
		c17.68,30.57,50.71,51.15,88.57,51.15h35.41h184.18h22.46h22.46h76.88c20.54,6.64,35.41,25.91,35.41,48.66
		c0,22.75-14.87,42.02-35.41,48.66H436.25c35.79,20.1,60.04,58.42,60.04,102.31h82.35c55.67,0,100.92-44.47,102.25-99.81h0.06
		v-99.81v0v-2.49H680.89z"/>
	<g>
		<path class="st3" d="M332.85,149.53v-47.55l18.65-18.65H161.92c0,35.32,17.9,66.46,45.12,84.84H351.5L332.85,149.53z"/>
		<path class="st3" d="M428.99,83.33l18.65,18.65v47.55l-18.65,18.65h144.46c27.22-18.39,45.12-49.52,45.12-84.84H428.99z"/>
		<path class="st3" d="M403.96,183.15H391.3h-14.77c0,0.16,0,0.31-0.01,0.47c-0.09,22.37-6.48,43.27-17.47,61.04V367.8h62.38V256.22
			v-11.57v-61.5H403.96z"/>
	</g>
	<polygon class="st3" points="407.83,83.29 372.65,83.29 347.78,108.16 347.78,143.34 372.65,168.22 407.83,168.22 432.71,143.34 
		432.71,108.16 	"/>
	<g>
		<polygon class="st2" points="805.5,145.9 802.47,109.14 820.63,109.14 817.6,145.9 		"/>
		<circle class="st2" cx="811.55" cy="158.67" r="6.74"/>
	</g>
	<g>
		<path class="st2" d="M784.62,183.15c0-7.91-3.08-15.35-8.68-20.94c-5.59-5.59-13.03-8.68-20.94-8.68s-15.35,3.08-20.94,8.68
			c-5.77,5.77-8.66,13.36-8.66,20.94h-44.45c-55.67,0-100.92,44.47-102.25,99.81h-0.06v2.5v48.58c0.01,0.02,0,0.05,0.01,0.08
			c0,12.91-4.8,24.69-12.69,33.69h12.69c38.32,0,74.22,18.99,96.04,50.12c3.75-10.22,5.94-21.19,6.21-32.65h0.06v-51.15
			c0,0,0.01-0.09,0-0.08c0.03-22.72,14.89-41.94,35.41-48.58h21.98c56.5,0,102.31-45.81,102.31-102.31H784.62z M686.7,246.11
			c-15.38,0-27.85-12.47-27.85-27.85s12.47-27.85,27.85-27.85c15.38,0,27.85,12.47,27.85,27.85S702.08,246.11,686.7,246.11z
			 M736.18,164.32c5.2-5.2,12.01-7.8,18.82-7.8c6.81,0,13.63,2.6,18.82,7.8c5.2,5.2,7.8,12.01,7.8,18.82c0,1.35-0.11,2.7-0.31,4.03
			c-0.25,1.62-0.64,3.21-1.18,4.77c-0.14,0.41-0.29,0.81-0.46,1.21c-0.49,1.2-1.07,2.38-1.74,3.51c-0.67,1.13-1.43,2.23-2.28,3.28
			c-0.57,0.7-1.18,1.37-1.83,2.02c-5.2,5.2-12.01,7.8-18.82,7.8c-6.81,0-13.63-2.6-18.82-7.8c-0.65-0.65-1.26-1.32-1.83-2.02
			c-0.85-1.05-1.61-2.14-2.28-3.28s-1.25-2.31-1.74-3.51c-0.16-0.4-0.31-0.8-0.46-1.21c-0.54-1.56-0.94-3.16-1.18-4.77
			c-0.2-1.34-0.31-2.69-0.31-4.03C728.38,176.33,730.98,169.52,736.18,164.32z"/>
		<path class="st2" d="M698.56,217.15c0,3.72,3.02,6.74,6.74,6.74s6.74-3.02,6.74-6.74c0-3.72-3.02-6.74-6.74-6.74
			S698.56,213.43,698.56,217.15z"/>
		<circle class="st2" cx="769.97" cy="183.67" r="6.74"/>
	</g>
</g>
</svg>
