<?xml version="1.0" encoding="UTF-8"?>
<svg id="Layer_1" data-name="Layer 1" xmlns="http://www.w3.org/2000/svg" viewBox="0 0 36 36">
  <defs>
    <style>
      .cls-1 {
        fill: #0a379e;
      }

      .cls-1, .cls-2 {
        stroke-width: 0px;
      }

      .cls-2 {
        fill: #00bf7d;
      }
    </style>
  </defs>
  <rect class="cls-1" width="36" height="36" rx="8" ry="8"/>
  <path class="cls-2" d="M18.44,24.98l-4.06-.08c-1.32-.03-2.63.03-3.92-.25-1.96-.41-2.1-2.42-2.25-4.1-.2-2.37-.12-4.78.26-7.13.21-1.32,1.05-2.1,2.35-2.19,4.39-.31,8.8-.27,13.18-.13.46.01.93.09,1.38.17,2.25.4,2.3,2.68,2.45,4.59.15,1.94.08,3.88-.19,5.8-.22,1.59-.65,2.93-2.45,3.05-2.26.17-4.46.3-6.72.26,0-.01-.01-.01-.02-.01ZM16.05,20.95c1.7-1,3.37-1.98,5.06-2.97-1.7-1-3.37-1.98-5.06-2.97v5.94Z"/>
</svg>