<?xml version="1.0" encoding="UTF-8"?>
<svg id="Layer_1" data-name="Layer 1" xmlns="http://www.w3.org/2000/svg" viewBox="0 0 36 36">
  <defs>
    <style>
      .cls-1 {
        fill: #00bf7d;
        fill-rule: evenodd;
      }

      .cls-1, .cls-2 {
        stroke-width: 0px;
      }

      .cls-2 {
        fill: #0a379e;
      }
    </style>
  </defs>
  <rect class="cls-2" width="36" height="36" rx="8" ry="8"/>
  <path class="cls-1" d="M9,18c0-3.6,0-5.39.86-6.69.38-.58.88-1.07,1.46-1.46,1.29-.86,3.09-.86,6.69-.86s5.39,0,6.69.86c.58.38,1.07.88,1.46,1.46.86,1.29.86,3.09.86,6.69s0,5.39-.86,6.69c-.38.58-.88,1.07-1.46,1.46-1.29.86-3.09.86-6.69.86s-5.39,0-6.69-.86c-.58-.38-1.07-.88-1.46-1.46-.86-1.29-.86-3.09-.86-6.69ZM22.66,18c0,2.57-2.09,4.66-4.66,4.66s-4.66-2.09-4.66-4.66,2.09-4.66,4.66-4.66,4.66,2.09,4.66,4.66ZM18,21.08c1.7,0,3.08-1.38,3.08-3.08s-1.38-3.08-3.08-3.08-3.08,1.38-3.08,3.08,1.38,3.08,3.08,3.08ZM22.84,14.2c.6,0,1.09-.49,1.09-1.09s-.49-1.09-1.09-1.09-1.09.49-1.09,1.09.49,1.09,1.09,1.09Z"/>
</svg>