<?xml version="1.0" encoding="UTF-8"?>
<svg id="Layer_1" data-name="Layer 1" xmlns="http://www.w3.org/2000/svg" viewBox="0 0 36 36">
  <defs>
    <style>
      .cls-1 {
        fill: #0a379e;
      }

      .cls-1, .cls-2 {
        stroke-width: 0px;
      }

      .cls-2 {
        fill: #00bf7d;
      }
    </style>
  </defs>
  <rect class="cls-1" width="36" height="36" rx="8" ry="8"/>
  <path class="cls-2" d="M21.03,10.7h0s.84,0,.84,0l.31.06c.21.04.39.09.56.16.17.06.33.14.49.23.16.09.3.17.43.26.13.09.24.18.34.28.1.1.25.13.47.08.21-.05.44-.12.68-.2.24-.09.48-.18.72-.29.24-.11.38-.18.43-.21.05-.03.08-.05.08-.05h0s.02-.01.02-.01h.02s.02-.02.02-.02h.02s0-.01,0-.01h0s0,0,0,0h0s.02,0,.02,0h.02s0,.02,0,.02v.02s-.01.02-.01.02v.02s-.02.02-.02.02v.02s-.02.02-.02.02c0,.02-.01.04-.02.06,0,.03-.06.14-.15.32-.1.19-.22.38-.37.58-.15.19-.28.34-.39.44-.12.1-.19.17-.23.21-.04.04-.08.08-.14.11l-.08.05h-.02s-.02.02-.02.02h0s0,0,0,0h0s0,0,0,0h-.02s-.02.02-.02.02h0s0,0,0,0h0s0,0,0,0h0s0,0,0,0h0s0,0,0,0h.08l.45-.1c.3-.06.59-.14.87-.24l.44-.15.05-.02h.02s.02-.02.02-.02h.02s.02-.02.02-.02h.02s.03-.01.03-.01h.03s0,.03,0,.03h0s0,0,0,0h0s0,0,0,0h0s0,0,0,0h0s0,0,0,0h0s0,0,0,0h0s0,0,0,0v.02s-.02.02-.02.02h0s-.07.1-.21.28c-.14.18-.21.27-.22.28-.01,0-.03.02-.05.05-.02.03-.13.15-.34.36s-.42.4-.62.56c-.2.17-.31.37-.31.61,0,.24-.02.51-.04.81-.02.3-.06.63-.12.98s-.15.75-.28,1.19c-.12.44-.28.88-.45,1.3-.18.42-.37.8-.56,1.13-.19.33-.37.62-.54.85-.16.23-.33.45-.5.66-.17.21-.38.44-.64.69-.26.26-.4.4-.42.42-.02.02-.13.11-.32.27-.19.15-.39.31-.6.46-.21.15-.41.28-.59.38-.18.1-.39.22-.65.35-.25.13-.52.26-.81.37-.29.11-.6.22-.93.32-.32.1-.64.17-.94.23-.3.05-.65.1-1.03.14l-.58.06h0s-1.06,0-1.06,0h0s-.14-.02-.14-.02c-.09,0-.17-.01-.23-.02-.06,0-.28-.04-.67-.09-.39-.05-.7-.11-.92-.16-.22-.05-.55-.16-.99-.31-.44-.15-.81-.3-1.12-.46-.31-.15-.51-.25-.58-.29-.08-.04-.17-.09-.26-.15l-.15-.09h0s0,0,0,0h0s0,0,0,0h-.02s-.02-.02-.02-.02h0s0,0,0,0h0s0,0,0,0h0s0,0,0,0h0v-.03h.02s.02,0,.02,0h.07s.18.02.4.03c.22.01.45.01.69,0,.24-.01.49-.04.75-.07.25-.04.55-.1.9-.19.35-.09.66-.2.95-.33.29-.13.49-.22.62-.29.12-.06.31-.18.56-.34l.37-.25h0s0,0,0,0h0s0,0,0,0h0s0,0,0,0h0s0,0,0,0h.02s.02,0,.02,0v-.02s0-.02,0-.02h0s0,0,0,0h-.13c-.09-.01-.17-.02-.25-.02-.08,0-.21-.03-.38-.07-.17-.04-.36-.11-.56-.19-.2-.09-.39-.19-.58-.31-.19-.12-.33-.22-.41-.3-.08-.08-.19-.19-.32-.33-.13-.14-.25-.29-.34-.44s-.19-.33-.28-.52l-.13-.29v-.02s-.02-.02-.02-.02v-.02s0-.02,0-.02h.02s.02,0,.02,0l.18.02c.12.02.31.02.56.02.25,0,.43-.02.53-.03.1-.02.16-.03.18-.03h.03s.04-.02.04-.02h.04s0-.01,0-.01h0s0,0,0,0h0s-.03-.01-.03-.01h-.03s-.03-.02-.03-.02h-.03s-.03-.02-.03-.02c-.02,0-.06-.02-.11-.03-.05-.02-.2-.08-.44-.18-.24-.1-.43-.2-.57-.3-.14-.1-.28-.2-.4-.32-.13-.12-.27-.27-.42-.45s-.29-.4-.41-.64c-.12-.24-.21-.48-.27-.7-.06-.22-.1-.45-.12-.67l-.03-.34h.02s.02,0,.02,0h.02s.02.02.02.02h.02s.02.02.02.02l.25.11c.17.08.38.14.62.19.25.05.4.08.45.09h.07s.15,0,.15,0h0s0,0,0,0h0s0,0,0,0h0s0,0,0,0h0s0,0,0,0h-.02s-.02-.02-.02-.02h0s0,0,0,0h0s0,0,0,0h-.02s-.02-.02-.02-.02h0s-.05-.04-.14-.11c-.09-.07-.18-.16-.28-.26-.1-.11-.19-.22-.29-.34-.1-.12-.18-.25-.26-.38-.08-.14-.16-.31-.24-.52-.08-.21-.15-.42-.19-.63-.04-.21-.07-.42-.07-.62,0-.21,0-.38.02-.53.02-.15.05-.31.1-.49.05-.18.12-.38.21-.58l.14-.31v-.02s.02-.02.02-.02h0s0,0,0,0h0s0,0,0,0h0s0,0,0,0h0s0,0,0,0h0s0,0,0,0h0s0,0,0,0v.02s.02.02.02.02h0s0,0,0,0l.22.24c.15.16.32.34.52.54.2.2.31.3.33.31.02,0,.05.03.08.07.03.04.14.14.32.29.18.15.42.33.72.53.3.2.63.4.99.59.36.19.75.37,1.17.53.42.16.71.26.88.31.17.05.45.11.86.19.41.08.71.12.92.15.21.02.35.03.42.04h.11s0-.02,0-.02v-.02s-.04-.2-.04-.2c-.02-.14-.03-.32-.03-.57s.02-.47.06-.67c.04-.21.09-.41.17-.62.08-.21.15-.38.22-.51.07-.13.17-.27.29-.43.12-.16.27-.33.46-.5.19-.17.41-.33.65-.46.24-.14.47-.24.67-.31.21-.07.38-.12.52-.14.14-.02.21-.03.21-.04Z"/>
</svg>