<svg width="47" height="40" viewBox="0 0 47 40" fill="none" xmlns="http://www.w3.org/2000/svg">
<path fill-rule="evenodd" clip-rule="evenodd" d="M16.3607 36.3977C9.44465 31.0918 0 22.3272 0 14.0401C0 0.195523 12.925 -4.97386 23.5 5.71784C34.075 -4.97386 47 0.195523 47 14.0401C47 22.3272 37.553 31.0918 30.6393 36.3977C27.5091 38.7977 25.944 40 23.5 40C21.056 40 19.4909 38.8 16.3607 36.3977ZM34.075 7.64724C34.5424 7.64724 34.9907 7.83317 35.3213 8.16411C35.6518 8.49506 35.8375 8.94391 35.8375 9.41194V12.3531H38.775C39.2424 12.3531 39.6907 12.539 40.0213 12.87C40.3518 13.2009 40.5375 13.6498 40.5375 14.1178C40.5375 14.5858 40.3518 15.0347 40.0213 15.3656C39.6907 15.6966 39.2424 15.8825 38.775 15.8825H35.8375V18.8237C35.8375 19.2917 35.6518 19.7405 35.3213 20.0715C34.9907 20.4024 34.5424 20.5883 34.075 20.5883C33.6076 20.5883 33.1593 20.4024 32.8287 20.0715C32.4982 19.7405 32.3125 19.2917 32.3125 18.8237V15.8825H29.375C28.9076 15.8825 28.4593 15.6966 28.1287 15.3656C27.7982 15.0347 27.6125 14.5858 27.6125 14.1178C27.6125 13.6498 27.7982 13.2009 28.1287 12.87C28.4593 12.539 28.9076 12.3531 29.375 12.3531H32.3125V9.41194C32.3125 8.94391 32.4982 8.49506 32.8287 8.16411C33.1593 7.83317 33.6076 7.64724 34.075 7.64724Z" fill="#00BF7D"/>
</svg>
