<svg width="330" height="107" viewBox="0 0 330 107" fill="none" xmlns="http://www.w3.org/2000/svg">
<path d="M168.706 59.3584C168.426 61.036 167.904 62.5926 167.133 64.0039C165.908 66.2504 164.135 68.0079 161.86 69.228C161.775 69.274 161.686 69.3128 161.599 69.3563H169.01L168.706 59.3584Z" fill="white"/>
<path d="M168.484 52.1298L168.295 46.0076L167.276 44.1048H162.321C165.551 45.6856 167.629 48.3776 168.484 52.1298Z" fill="white"/>
<path d="M216.435 69.3588L215.329 64.7084H207.806L206.61 69.3588H198.404L207.086 44.1048H216.505L224.678 69.3588H216.435ZM211.654 49.6001H211.478C211.454 49.8809 211.372 50.3457 211.232 50.992C211.091 51.6384 210.381 54.4078 209.106 59.3051H213.92L212.164 52.4373C211.918 51.4254 211.749 50.4812 211.654 49.6001Z" fill="white"/>
<path d="M238.211 50.0576V69.3588H230.585V50.0576H223.538V44.1048H245.348V50.0576H238.211Z" fill="white"/>
<path d="M264.961 68.6713C262.877 69.4217 260.468 69.7993 257.738 69.7993C255.054 69.7993 252.742 69.2861 250.798 68.2573C248.853 67.2309 247.367 65.7687 246.343 63.8708C245.319 61.9753 244.804 59.7893 244.804 57.3104C244.804 54.645 245.376 52.2727 246.526 50.1956C247.674 48.1161 249.297 46.5111 251.394 45.3782C253.491 44.2452 255.905 43.6788 258.634 43.6788C260.814 43.6788 262.923 43.9426 264.961 44.4704V51.498C264.258 51.0743 263.42 50.7475 262.449 50.5127C261.475 50.2779 260.492 50.1617 259.497 50.1617C257.434 50.1617 255.81 50.7548 254.619 51.941C253.431 53.1272 252.837 54.7346 252.837 56.7657C252.837 58.7846 253.431 60.38 254.619 61.5468C255.808 62.716 257.398 63.2995 259.391 63.2995C261.229 63.2995 263.087 62.8298 264.961 61.8905V68.6713Z" fill="white"/>
<path d="M283.029 69.3588V59.9369H274.313V69.3588H266.72V44.1048H274.313V53.4564H283.029V44.1048H290.622V69.3588H283.029Z" fill="white"/>
<path d="M115.534 69.3588V55.5165C115.534 54.2141 115.575 52.781 115.657 51.2196L115.71 50.0576H115.5C115.126 52.0427 114.838 53.4153 114.638 54.1778L110.929 69.3588H103.793L99.9084 54.3545C99.8021 53.9793 99.5267 52.5462 99.0822 50.0576H98.872C99.0363 54.0035 99.1184 56.4679 99.1184 57.4532V69.3588H92.458V44.1048H103.829L107.291 57.8236C107.373 58.1044 107.482 58.6781 107.617 59.5399C107.753 60.4042 107.837 61.0699 107.871 61.5395H107.977C108.105 60.4719 108.311 59.2083 108.593 57.7534L111.828 44.1048H123.023V69.3588H115.534Z" fill="#00BF7D"/>
<path d="M125.815 69.3588V44.1048H141.509V50.0576H133.406V53.7372H141.016V59.69H133.406V63.406H142.088V69.3588H125.815Z" fill="#00BF7D"/>
<path d="M167.276 56.4147C167.276 58.9735 166.739 61.2369 165.667 63.2026C164.594 65.1683 163.062 66.6862 161.072 67.7562C159.081 68.8238 156.784 69.3588 154.182 69.3588H143.514V44.1048H153.952C162.835 44.1048 167.276 48.2081 167.276 56.4147ZM159.209 56.4849C159.209 55.2527 158.96 54.1439 158.463 53.1562C157.965 52.171 157.252 51.406 156.327 50.8662C155.402 50.3263 154.312 50.0552 153.059 50.0552H151.109V63.4036H153.235C155.052 63.4036 156.501 62.779 157.586 61.5274C158.668 60.2807 159.209 58.5982 159.209 56.4849Z" fill="#00BF7D"/>
<path d="M186.643 44.1048L183.409 57.7534C183.128 59.2083 182.923 60.4719 182.793 61.5395H182.686C182.65 61.0699 182.566 60.4042 182.43 59.5399C182.295 58.6781 182.186 58.1044 182.104 57.8236L178.642 44.1048H167.271V48.8278C168.368 50.8831 168.938 53.4104 168.938 56.4147C168.938 59.126 168.373 61.5783 167.271 63.7183V69.3588H173.939V57.4532C173.939 56.4679 173.856 54.0011 173.692 50.0576H173.902C174.347 52.5462 174.622 53.9793 174.729 54.3545L178.613 69.3588H185.75L189.458 54.1778C189.658 53.4153 189.943 52.0402 190.32 50.0576H190.53L190.477 51.2196C190.395 52.781 190.354 54.2141 190.354 55.5165V69.3588H197.841V44.1048H186.643Z" fill="white"/>
<path d="M57.2379 66.3787H48.0554C46.7243 65.9478 45.7628 64.6963 45.7628 63.2196C45.7628 62.382 46.0744 61.617 46.5842 61.0336H45.7628C43.2818 61.0336 40.9553 59.8014 39.5421 57.78C39.3005 58.4433 39.158 59.155 39.1386 59.8982H39.1362V60.0604V66.5385H39.1435C39.2304 70.131 42.156 73.0166 45.7628 73.0166H63.8645C63.8645 69.3515 60.8979 66.3787 57.2379 66.3787Z" fill="#00BF7D"/>
<path d="M76.7914 46.942C76.7045 43.3495 73.7741 40.4639 70.1697 40.4639H59.8252C59.8252 44.1314 62.7918 47.1042 66.4518 47.1042H67.8747C69.2058 47.5351 70.1673 48.7867 70.1673 50.2634C70.1673 51.101 69.8556 51.866 69.3459 52.4494H70.1673C72.6483 52.4494 74.9748 53.6816 76.388 55.7029C76.6296 55.0396 76.7721 54.3279 76.7914 53.5847H76.7963V50.2634V47.1042V46.942H76.7914Z" fill="#00BF7D"/>
<path d="M55.9456 61.0336V61.6824V63.1397V65.408H57.238C58.2068 65.408 59.132 65.592 59.9848 65.926V63.1421V61.6848V61.036H55.9456V61.0336Z" fill="white"/>
<path d="M76.7915 59.8982C76.7649 58.7483 76.4436 57.6735 75.9049 56.7391C74.7598 54.754 72.6194 53.4177 70.1673 53.4177H67.8747H62.8957H61.4414H59.9871H48.0578C46.7267 52.9868 45.7652 51.7352 45.7652 50.2585C45.7652 48.7818 46.7291 47.5327 48.0578 47.0994H49.4807C53.1407 47.0994 56.1073 44.1266 56.1073 40.4591H45.7628C42.156 40.4591 39.2256 43.3447 39.1411 46.9372H39.1362V47.0994V50.2585V53.5799H39.1411C39.1676 54.7298 39.4889 55.8046 40.0277 56.7391C41.1728 58.7241 43.3132 60.0604 45.7652 60.0604H48.0578H59.9871H61.4414H62.8957H67.8747C69.2058 60.4913 70.1673 61.7429 70.1673 63.2196C70.1673 64.6963 69.2034 65.9454 67.8747 66.3787H60.9462C63.2654 67.6836 64.8356 70.1697 64.8356 73.019H70.1698C73.7766 73.019 76.7069 70.1334 76.7915 66.5409H76.7963V60.0604V59.8982H76.7915Z" fill="#00BF7D"/>
<path d="M58.8542 40.4639H57.0762C57.0762 40.4736 57.0762 40.4833 57.0762 40.4954C57.0713 41.9479 56.6558 43.3035 55.9456 44.4583V52.4518H59.9872V44.4583C59.2745 43.3059 58.8614 41.9479 58.8566 40.4978C58.8542 40.4833 58.8542 40.4736 58.8542 40.4639Z" fill="white"/>
<path d="M54.2496 38.2803V35.1938L55.4576 33.9834H43.178C43.178 36.2759 44.3376 38.2973 46.1011 39.4908H55.4576L54.2496 38.2803Z" fill="white"/>
<path d="M60.4751 33.9858L61.683 35.1962V38.2828L60.4751 39.4932H69.8315C71.5951 38.2997 72.7547 36.2783 72.7547 33.9858H60.4751Z" fill="white"/>
<path d="M59.1053 33.981H56.8272L55.2158 35.5957V37.8809L56.8272 39.4956H59.1053L60.7166 37.8809V35.5957L59.1053 33.981Z" fill="white"/>
</svg>
