<svg width="301" height="47" viewBox="0 0 301 47" fill="none" xmlns="http://www.w3.org/2000/svg">
<path d="M154.59 14.3921L153.369 12.114H132.316L145.67 18.352V36.3365L135.095 42.34H155.446L154.59 14.3921Z" fill="#0A379E"/>
<path d="M180.99 42.34V25.771C180.99 24.2108 181.039 22.4971 181.137 20.6272L181.201 19.2349H180.95C180.499 21.6085 180.158 23.2527 179.918 24.1674L175.481 42.3371H166.937L162.289 24.3787C162.162 23.93 161.832 22.2164 161.301 19.2349H161.047C161.243 23.9561 161.341 26.9057 161.341 28.0867V42.3342H153.369V12.114H166.977L171.12 28.5325C171.218 28.8712 171.348 29.5543 171.51 30.5877C171.671 31.6211 171.772 32.4171 171.816 32.9816H171.943C172.096 31.7022 172.341 30.1911 172.679 28.4486L176.55 12.114H189.951V42.34H180.99Z" fill="#0A379E"/>
<path d="M212.205 42.34L210.879 36.7765H201.875L200.446 42.34H190.624L201.015 12.114H212.289L222.07 42.34H212.205ZM206.486 18.6907H206.275C206.246 19.0293 206.148 19.5822 205.98 20.3551C205.813 21.128 204.963 24.4453 203.435 30.304H209.198L207.095 22.0832C206.801 20.8761 206.596 19.7443 206.486 18.6907Z" fill="#0A379E"/>
<path d="M238.27 19.2407V42.3429H229.141V19.2407H220.707V12.1169H246.812V19.2407H238.27Z" fill="#0A379E"/>
<path d="M270.288 41.5182C267.792 42.4184 264.909 42.8671 261.642 42.8671C258.43 42.8671 255.662 42.2534 253.334 41.0232C251.006 39.7929 249.229 38.0446 248.002 35.7752C246.774 33.5057 246.162 30.889 246.162 27.9248C246.162 24.7349 246.849 21.8953 248.224 19.4088C249.599 16.9223 251.54 15.0002 254.051 13.6426C256.561 12.285 259.45 11.6077 262.717 11.6077C265.325 11.6077 267.85 11.9232 270.288 12.5571V20.9661C269.447 20.4595 268.445 20.0659 267.281 19.7851C266.117 19.5043 264.938 19.3625 263.748 19.3625C261.281 19.3625 259.334 20.0716 257.91 21.49C256.486 22.9084 255.775 24.8334 255.775 27.2649C255.775 29.6819 256.486 31.5895 257.91 32.9876C259.334 34.3857 261.238 35.0862 263.621 35.0862C265.822 35.0862 268.043 34.5247 270.288 33.3986V41.5182Z" fill="#0A379E"/>
<path d="M291.912 42.34V31.0624H281.478V42.34H272.391V12.114H281.478V23.3077H291.912V12.114H301V42.34H291.912Z" fill="#0A379E"/>
<path d="M91.4383 42.34V25.771C91.4383 24.2108 91.4874 22.4971 91.5856 20.6272L91.6491 19.2349H91.3978C90.9501 21.6085 90.6063 23.2527 90.3665 24.1674L85.9295 42.3371H77.3877L72.7399 24.3787C72.6127 23.93 72.2834 22.2164 71.7519 19.2349H71.5006C71.697 23.9561 71.7953 26.9057 71.7953 28.0867V42.3342H63.8225V12.114H77.4311L81.5734 28.5325C81.6716 28.8712 81.8016 29.5543 81.9634 30.5877C82.1252 31.6211 82.2263 32.4171 82.2696 32.9816H82.3967C82.5498 31.7022 82.7953 30.1911 83.1333 28.4486L87.0041 12.114H100.402V42.34H91.4383Z" fill="#00BF7D"/>
<path d="M103.747 42.34V12.114H122.532V19.2378H112.835V23.6434H121.943V30.7672H112.835V35.2134H123.225V42.3371H103.747V42.34Z" fill="#00BF7D"/>
<path d="M153.369 26.8478C153.369 29.9104 152.727 32.6198 151.445 34.9731C150.162 37.3265 148.328 39.1443 145.945 40.4209C143.562 41.7003 140.812 42.34 137.701 42.34H124.933V12.114H137.426C148.056 12.114 153.369 17.0262 153.369 26.8478ZM143.715 26.9318C143.715 25.4555 143.417 24.1297 142.822 22.9487C142.227 21.7677 141.375 20.8559 140.266 20.2075C139.159 19.562 137.854 19.2378 136.354 19.2378H134.02V35.2163H136.565C138.738 35.2163 140.474 34.4666 141.771 32.97C143.065 31.4764 143.715 29.4617 143.715 26.9318Z" fill="#00BF7D"/>
<path d="M21.6651 38.7739H10.6765C9.08489 38.2587 7.93231 36.7621 7.93231 34.9935C7.93231 33.989 8.30494 33.0743 8.91734 32.3767H7.93231C4.96275 32.3767 2.17806 30.9004 0.488187 28.4834C0.196431 29.2765 0.028888 30.1305 0.00577859 31.0191H0V31.2131V38.9678H0.00866567C0.112658 43.2664 3.61662 46.7226 7.92941 46.7226H29.5945C29.5974 42.3314 26.0472 38.7739 21.6651 38.7739Z" fill="#00BF7D"/>
<path d="M45.0691 15.5097C44.9651 11.2111 41.4583 7.75488 37.1426 7.75488H24.7617C24.7617 12.1432 28.3119 15.7036 32.694 15.7036H34.3983C35.99 16.2189 37.1426 17.7154 37.1426 19.484C37.1426 20.4885 36.7699 21.4032 36.1575 22.1008H37.1426C40.1121 22.1008 42.8968 23.5771 44.5867 25.9941C44.8785 25.201 45.046 24.3471 45.0691 23.4584H45.0749V19.484V15.7036V15.5097H45.0691Z" fill="#00BF7D"/>
<path d="M20.1196 32.377V33.1527V34.8982V37.6134H21.6651C22.8234 37.6134 23.9327 37.8334 24.9524 38.2328V34.8982V33.1527V32.377H20.1196Z" fill="#0A379E"/>
<path d="M45.0691 31.0192C45.0373 29.6443 44.6532 28.3562 44.009 27.2388C42.6369 24.8652 40.0775 23.2645 37.1426 23.2645H34.3983H28.439H26.6971H24.9553H10.6765C9.08489 22.7492 7.93231 21.2527 7.93231 19.484C7.93231 17.7154 9.08489 16.2189 10.6765 15.7036H12.3809C16.7601 15.7036 20.3132 12.1461 20.3132 7.75488H7.93231C3.61662 7.75488 0.109771 11.2082 0.00577859 15.5097H0V15.7036V19.484V23.4584H0.00577859C0.037554 24.8334 0.421747 26.1215 1.06592 27.2388C2.43804 29.6153 4.99741 31.2132 7.93231 31.2132H10.6765H24.9553H26.6971H28.439H34.3983C35.99 31.7284 37.1426 33.225 37.1426 34.9936C37.1426 36.7622 35.99 38.2588 34.3983 38.774H26.105C28.881 40.3371 30.7586 43.3128 30.7586 46.7228H37.1426C41.4583 46.7228 44.9651 43.2694 45.0691 38.968H45.0749V31.2132V31.0192H45.0691Z" fill="#00BF7D"/>
<path d="M23.6005 7.75781H21.4744C21.4744 7.76939 21.4744 7.78097 21.4744 7.79544C21.4686 9.53223 20.9718 11.1561 20.1196 12.5369V22.1037H24.9553V12.534C24.1031 11.1532 23.6091 9.52934 23.6005 7.79255C23.6005 7.78097 23.6005 7.76939 23.6005 7.75781Z" fill="#0A379E"/>
<path d="M18.0889 5.14409V1.4505L19.5333 0.00317383H4.83569C4.83569 2.74731 6.22226 5.16724 8.33388 6.59431H19.5333L18.0889 5.14409Z" fill="#0A379E"/>
<path d="M25.5417 0.00289307L26.9861 1.45022V5.14381L25.5417 6.59114H36.7411C38.8499 5.16407 40.2393 2.74413 40.2393 0H25.5417V0.00289307Z" fill="#0A379E"/>
<path d="M23.9009 0H21.174L19.2444 1.93074V4.66329L21.174 6.59692H23.9009L25.8306 4.66329V1.93074L23.9009 0Z" fill="#0A379E"/>
</svg>
