<svg width="47" height="47" viewBox="0 0 47 47" fill="none" xmlns="http://www.w3.org/2000/svg">
<path d="M46.9771 21.9637C46.595 15.8701 43.8442 10.1678 39.3127 6.07593C34.7713 1.97524 28.813 -0.198531 22.6979 0.0142723C16.5824 0.222808 10.7881 2.80294 6.54151 7.20847C2.30579 11.6032 -0.0419289 17.4811 0.00056701 23.5846V24.1119C0.0257862 25.2215 0.133541 26.3288 0.321539 27.4224C1.27727 33.1321 4.31598 38.2847 8.85022 41.8842C13.3925 45.4925 19.1056 47.2995 24.8968 46.9594C30.6879 46.6194 36.1503 44.1561 40.239 40.0409C44.3167 35.9344 46.7259 30.4611 47 24.6804V23.6075C47 23.2407 47 22.4887 46.9771 21.9637ZM43.4693 25.6181H36.2658L30.071 35.944C29.8651 36.2814 29.5752 36.5598 29.2296 36.7518C28.8841 36.9439 28.4947 37.0431 28.0993 37.0399H27.9618C27.5413 37.0171 27.1351 36.8793 26.7874 36.6416C26.4398 36.4039 26.164 36.0754 25.9901 35.6918L18.6261 19.153L14.0408 26.8057C13.8346 27.1436 13.5444 27.4223 13.1984 27.6147C12.8525 27.8072 12.4627 27.9068 12.0668 27.9038H3.94393C3.62014 26.487 3.45862 25.0379 3.46248 23.5846V23.3324H10.7577L16.9708 13.0317C17.1886 12.6732 17.5008 12.3814 17.8731 12.1881C18.2455 11.9949 18.6638 11.9076 19.0823 11.9358C19.4989 11.9625 19.9004 12.102 20.2437 12.3395C20.587 12.577 20.8592 12.9035 21.0311 13.2839L28.418 29.8228L33.0056 22.17C33.2087 21.8281 33.4972 21.5449 33.843 21.3483C34.1887 21.1517 34.5796 21.0486 34.9773 21.0489H43.4189C43.5335 21.8903 43.5862 22.7386 43.5794 23.5846C43.5869 24.2642 43.5486 24.9436 43.4647 25.6181" fill="#00BF7D"/>
</svg>
